<?xml version="1.0" encoding="utf-8"?>
<!-- Generator: Adobe Illustrator 27.5.0, SVG Export Plug-In . SVG Version: 6.00 Build 0)  -->
<svg version="1.1" xmlns="http://www.w3.org/2000/svg" xmlns:xlink="http://www.w3.org/1999/xlink" x="0px" y="0px"
	 viewBox="0 0 500 500" style="enable-background:new 0 0 500 500;" xml:space="preserve">
<g id="Floor">
	<polygon id="Floor_1_" style="fill:#E0E0E0;" points="10.589,457.147 10.089,456.281 270.309,306.042 270.559,306.187 
		485.847,430.485 485.347,431.35 270.309,307.197 	"/>
</g>
<g id="Window">
	<g id="Window_3_">
		<g id="Window_11_">
			<g id="Frame_4_">
				<polygon id="XMLID_2863_" style="fill:#FAFAFA;" points="468.32,261.848 465.896,262.681 376.521,211.081 378.943,210.246 				
					"/>
				<g id="XMLID_2854_">
					<g id="XMLID_2855_">
						<g id="XMLID_2861_">
							<polygon id="XMLID_2862_" style="fill:#FFFFFF;" points="378.943,210.246 465.896,260.443 465.895,110.533 378.942,60.349 
															"/>
						</g>
					</g>
				</g>
				<path id="XMLID_2851_" style="fill:#F0F0F0;" d="M371.947,212.584l98.521,56.881l0-160.437l-98.522-56.881L371.947,212.584z
					 M376.52,58.932l89.374,51.6l0.001,152.148l-89.375-51.6L376.52,58.932z"/>
				<polygon id="XMLID_2840_" style="fill:#E0E0E0;" points="376.521,211.081 378.943,210.246 378.942,60.349 376.52,58.932 				"/>
				<polygon id="XMLID_2839_" style="fill:#FAFAFA;" points="465.896,215.634 465.896,217.867 376.521,166.266 378.943,165.432 				
					"/>
				<polygon id="XMLID_2834_" style="fill:#FAFAFA;" points="465.896,148.983 465.896,151.215 376.521,99.615 378.943,98.78 				"/>
				<polygon id="XMLID_2742_" style="fill:#FAFAFA;" points="371.947,52.148 374.407,51.347 472.929,108.228 470.468,109.028 				
					"/>
				<polygon id="XMLID_2635_" style="fill:#E0E0E0;" points="472.929,108.228 470.468,109.028 470.468,269.465 472.929,268.665 				
					"/>
				<polygon id="XMLID_2634_" style="fill:#E0E0E0;" points="426.04,87.523 423.58,86.102 423.58,238.257 426.04,237.456 				"/>
			</g>
			<polygon style="fill:#F0F0F0;" points="419.006,83.471 423.58,86.102 423.58,238.257 419.007,235.61 			"/>
			<g>
				<polygon style="fill:#F0F0F0;" points="371.947,96.975 371.947,101.115 470.468,157.995 470.468,153.856 				"/>
				<polygon style="fill:#F0F0F0;" points="371.947,163.617 371.947,167.757 470.468,224.638 470.468,220.498 				"/>
			</g>
			<polygon style="fill:#FAFAFA;" points="423.58,126.784 426.04,125.972 465.896,148.983 465.896,151.215 			"/>
			<polygon style="fill:#FAFAFA;" points="423.58,193.413 426.04,192.601 465.896,215.612 465.896,217.844 			"/>
		</g>
	</g>
</g>
<g id="Pictures">
	<g id="Picture_19_">
		<g id="Frame_19_">
			<polygon id="XMLID_2979_" style="fill:#FAFAFA;" points="353.044,182.627 351.007,183.835 309.319,159.658 311.355,158.448 			
				"/>
			<g id="XMLID_2967_">
				<g id="XMLID_2971_">
					<g id="XMLID_2977_">
						<polygon id="XMLID_2978_" style="fill:#FFFFFF;" points="311.355,158.448 351.012,181.443 351.092,139.868 311.435,116.888 
													"/>
					</g>
				</g>
			</g>
			<path id="XMLID_2925_" style="fill:#F0F0F0;" d="M305.476,161.865l49.356,28.625l0.103-52.83l-49.356-28.625L305.476,161.865z
				 M309.405,115.69l41.688,24.177l-0.085,43.968l-41.688-24.178L309.405,115.69z"/>
			<polygon id="XMLID_2922_" style="fill:#E0E0E0;" points="309.319,159.658 311.355,158.448 311.435,116.888 309.405,115.69 			"/>
			<polygon id="XMLID_2919_" style="fill:#FAFAFA;" points="305.579,109.035 307.647,107.857 357.003,136.482 354.935,137.66 			"/>
			<polygon id="XMLID_2918_" style="fill:#E0E0E0;" points="357.003,136.482 354.935,137.66 354.832,190.49 356.9,189.312 			"/>
		</g>
		<g id="Land_15_">
			<polygon style="fill:#F0F0F0;" points="312.907,157.209 349.467,178.413 349.488,167.846 340.378,146.697 334.667,151.968 
				336.7,160.829 324.115,133.776 312.927,146.643 			"/>
			<path style="fill:#F0F0F0;" d="M335.042,136.482c1.493,0.866,2.701,2.968,2.698,4.694c-0.003,1.726-1.217,2.424-2.71,1.558
				c-1.493-0.866-2.701-2.968-2.698-4.694C332.335,136.314,333.549,135.616,335.042,136.482z"/>
		</g>
	</g>
	<g id="Picture_18_">
		<g id="Frame_17_">
			<polygon id="XMLID_2916_" style="fill:#FAFAFA;" points="353.044,111.677 351.007,112.886 309.319,88.708 311.355,87.499 			"/>
			<g id="XMLID_2875_">
				<g id="XMLID_2876_">
					<g id="XMLID_2890_">
						<polygon id="XMLID_2905_" style="fill:#FFFFFF;" points="311.355,87.499 351.012,110.493 351.092,68.918 311.435,45.938 
													"/>
					</g>
				</g>
			</g>
			<path id="XMLID_2872_" style="fill:#F0F0F0;" d="M305.475,90.915l49.357,28.625l0.103-52.83l-49.357-28.624L305.475,90.915z
				 M309.405,44.741l41.688,24.177l-0.085,43.968l-41.688-24.178L309.405,44.741z"/>
			<polygon id="XMLID_2871_" style="fill:#E0E0E0;" points="309.319,88.708 311.355,87.499 311.435,45.938 309.405,44.741 			"/>
			<polygon id="XMLID_2870_" style="fill:#FAFAFA;" points="305.578,38.086 307.646,36.908 357.003,65.532 354.935,66.71 			"/>
			<polygon id="XMLID_2865_" style="fill:#E0E0E0;" points="357.003,65.532 354.935,66.71 354.832,119.54 356.9,118.362 			"/>
		</g>
		<g id="Land_13_">
			<polygon style="fill:#F0F0F0;" points="312.907,86.259 349.467,107.463 349.488,96.897 340.378,75.747 334.667,81.019 
				336.7,89.88 324.115,62.827 312.927,75.694 			"/>
			<path style="fill:#F0F0F0;" d="M335.042,65.533c1.494,0.866,2.701,2.968,2.698,4.694c-0.003,1.726-1.217,2.424-2.71,1.558
				c-1.493-0.866-2.701-2.968-2.698-4.694C332.335,65.364,333.548,64.667,335.042,65.533z"/>
		</g>
	</g>
</g>
<g id="Door_3_">
	<g id="Door">
		<g id="Interior">
			<g>
				<g>
					<polygon style="fill:#E0E0E0;" points="158.637,377.286 40.769,445.264 45.273,313.697 					"/>
				</g>
			</g>
		</g>
		<g id="Interior_1_" style="opacity:0.15;">
			<g>
				<g>
					<polygon points="158.637,377.286 40.769,445.264 40.857,309.448 					"/>
				</g>
			</g>
		</g>
		<g id="Door_1_">
			<g id="Door_2_">
				<path style="fill:#BA68C8;" d="M35.41,120.563v321.681l117.869-67.964V52.589L35.41,120.563z M87.118,233.296L52.807,253.04
					V124.075l34.311-19.744V233.296z M136.665,204.624l-34.193,19.764l-0.01-128.965l34.202-19.764V204.624z"/>
				<path style="opacity:0.4;fill:#FFFFFF;" d="M35.41,120.563v321.681l117.869-67.964V52.589L35.41,120.563z M87.118,233.296
					L52.807,253.04V124.075l34.311-19.744V233.296z M136.665,204.624l-34.193,19.764l-0.01-128.965l34.202-19.764V204.624z"/>
				<g>
					<polygon style="opacity:0.4;fill:#FFFFFF;" points="87.115,233.296 90.822,235.436 52.808,257.32 52.808,253.038 					"/>
					<polygon style="opacity:0.4;fill:#FFFFFF;" points="136.669,204.628 140.377,206.768 102.481,228.666 98.773,226.526 					"/>
					<polygon style="opacity:0.7;fill:#BA68C8;" points="136.669,204.626 136.669,75.608 140.387,73.462 140.377,206.766 					"/>
					<polygon style="fill:#BA68C8;" points="90.822,235.436 102.481,228.666 102.481,95.416 90.822,102.186 					"/>
					<polygon style="opacity:0.4;fill:#FFFFFF;" points="90.822,235.436 102.481,228.666 102.481,95.416 90.822,102.186 					"/>
					<polygon style="opacity:0.7;fill:#BA68C8;" points="90.822,235.436 87.115,233.296 87.115,104.326 90.822,102.186 					"/>
					<g>
						<polygon style="opacity:0.4;fill:#FFFFFF;" points="90.822,253.242 52.806,275.126 52.808,412.506 90.822,390.623 						"/>
						<polygon style="fill:#BA68C8;" points="88.211,261.892 58.805,278.805 58.806,401.899 88.211,384.986 						"/>
						<polygon style="opacity:0.4;fill:#FFFFFF;" points="88.211,261.892 58.805,278.805 58.806,401.899 88.211,384.986 						"/>
						<polygon style="opacity:0.7;fill:#BA68C8;" points="52.806,275.126 58.805,278.805 58.806,401.899 52.808,412.506 						"/>
						<polygon style="opacity:0.7;fill:#BA68C8;" points="90.822,253.242 88.211,261.892 88.211,384.986 90.822,390.623 						"/>
						<polygon style="fill:#BA68C8;" points="90.822,390.623 88.211,384.986 58.806,401.899 52.808,412.506 						"/>
					</g>
					<g>
						<polygon style="opacity:0.4;fill:#FFFFFF;" points="140.389,224.568 102.482,246.471 102.484,383.851 140.389,361.948 						
							"/>
						<polygon style="fill:#BA68C8;" points="137.777,233.217 108.481,250.15 108.482,373.243 137.777,356.311 						"/>
						<polygon style="opacity:0.4;fill:#FFFFFF;" points="137.777,233.217 108.481,250.15 108.482,373.243 137.777,356.311 						
							"/>
						<polygon style="opacity:0.7;fill:#BA68C8;" points="102.482,246.471 108.481,250.15 108.482,373.243 102.484,383.851 						
							"/>
						<polygon style="opacity:0.7;fill:#BA68C8;" points="140.389,224.568 137.777,233.217 137.777,356.311 140.389,361.948 						
							"/>
						<polygon style="fill:#BA68C8;" points="140.389,361.948 137.777,356.311 108.482,373.243 102.484,383.851 						"/>
					</g>
				</g>
				<g id="Latch">
					<polygon style="fill:#E0E0E0;" points="42.073,264.031 43.973,265.128 43.974,296.665 42.074,295.568 					"/>
					<polygon style="fill:#FAFAFA;" points="43.973,265.128 54.216,259.215 54.216,290.752 43.974,296.665 					"/>
					<path style="opacity:0.05;" d="M54.216,267.893l-4.484,2.589l0.001,5.126c0,0.471,0.51,0.765,0.917,0.53l3.565-2.058V267.893z"
						/>
					<polygon style="fill:#EBEBEB;" points="54.216,259.215 52.315,258.119 42.073,264.031 43.973,265.128 					"/>
					<g>
						<path style="fill:#E0E0E0;" d="M47.899,269.424l4.698,2.712l1.881-3.257l-4.698-2.712l0,0
							c-0.241-0.139-0.573-0.119-0.94,0.093c-0.734,0.424-1.33,1.455-1.33,2.303C47.51,268.987,47.659,269.285,47.899,269.424z"/>
						<polygon style="opacity:0.1;" points="49.732,270.482 51.44,271.468 51.439,269.224 53.258,268.174 51.55,267.188 
							49.732,268.238 						"/>
						<g>
							<polygon style="fill:#FAFAFA;" points="52.007,269.579 52.008,274.506 70.79,263.667 70.79,258.739 							"/>
							<polygon style="fill:#E0E0E0;" points="52.007,269.579 50.3,268.592 50.3,273.52 52.008,274.506 							"/>
							<polygon style="fill:#EBEBEB;" points="70.79,258.739 69.083,257.752 50.3,268.592 52.007,269.579 							"/>
						</g>
					</g>
					<path style="fill:#455A64;" d="M47.369,283.314c0-1.1,0.773-2.439,1.725-2.989c0.953-0.55,1.726-0.104,1.726,0.996
						c0,0.819-0.43,1.768-1.041,2.428l0,3.22c0,0.372-0.261,0.825-0.584,1.011l-0.202,0.116c-0.322,0.186-0.584,0.035-0.584-0.337
						v-3.217C47.798,284.589,47.369,284.134,47.369,283.314z"/>
				</g>
			</g>
			<polygon style="fill:#263238;" points="30.016,439.127 35.414,442.243 35.411,120.563 30.014,117.446 			"/>
			<polygon style="fill:#37474F;" points="147.882,49.469 30.014,117.446 35.411,120.563 153.279,52.585 			"/>
		</g>
		<g id="Casing">
			<g>
				<polygon style="fill:#E0E0E0;" points="153.281,374.276 158.637,377.286 158.637,49.49 153.281,52.581 				"/>
			</g>
			<g>
				<polygon style="fill:#F0F0F0;" points="158.637,377.286 167.535,372.148 167.535,32.705 31.854,110.957 31.856,450.371 
					40.769,445.264 40.769,117.467 158.635,49.49 				"/>
			</g>
			<g>
				<polygon style="fill:#FAFAFA;" points="167.535,32.705 31.854,110.957 26.587,107.9 162.272,29.648 				"/>
			</g>
			<g>
				<polygon style="fill:#E0E0E0;" points="31.853,450.371 31.854,110.957 26.587,107.9 26.588,447.331 				"/>
			</g>
		</g>
	</g>
</g>
<g id="Padlock_1_">
	<g id="Padlock">
		<path style="fill:#BA68C8;" d="M346.376,277.778c0-2.281,1.507-4.563,4.522-6.304l8.891-5.133c6.03-3.482,15.807-3.482,21.837,0
			l80.589,46.529c3.018,1.743,4.525,4.028,4.521,6.312l0,0l-0.001,106.439l0,0c0.007,2.287-1.499,4.575-4.521,6.32l-8.888,5.132
			c-6.03,3.482-15.807,3.482-21.838,0l-80.591-46.529c-3.015-1.741-4.522-4.022-4.522-6.303l0,0V277.778L346.376,277.778z"/>
		<path style="opacity:0.4;fill:#FFFFFF;" d="M346.376,277.778c0-2.281,1.507-4.563,4.522-6.304l8.891-5.133
			c6.03-3.482,15.807-3.482,21.837,0l80.589,46.529c3.018,1.743,4.525,4.028,4.521,6.312l0,0l-0.001,106.439l0,0
			c0.007,2.287-1.499,4.575-4.521,6.32l-8.888,5.132c-6.03,3.482-15.807,3.482-21.838,0l-80.591-46.529
			c-3.015-1.741-4.522-4.022-4.522-6.303l0,0V277.778L346.376,277.778z"/>
		<path style="opacity:0.4;fill:#FFFFFF;" d="M453.328,330.61l8.888-5.132c6.03-3.482,6.03-9.127,0-12.608l-80.589-46.529
			c-6.03-3.482-15.807-3.482-21.838,0l-8.891,5.133c-6.03,3.482-6.03,9.126,0,12.608l80.591,46.529
			C437.521,334.092,447.298,334.092,453.328,330.61z"/>
		<path style="opacity:0.3;fill:#BA68C8;" d="M442.397,333.217V439.68c3.959,0,7.918-0.857,10.919-2.597l8.901-5.144
			c3.026-1.74,4.539-4.035,4.514-6.329V319.172c0,2.295-1.488,4.564-4.514,6.304l-8.901,5.144
			C450.315,332.36,446.357,333.217,442.397,333.217z"/>
		<g id="XMLID_2847_">
			<path id="XMLID_2850_" style="fill:#455A64;" d="M383.751,385.878l19.242,11.11l-2.981-34.809
				c2.301-1.217,3.768-4.211,3.768-8.511c0-7.664-4.66-16.568-10.409-19.887c-5.747-3.318-10.407,0.205-10.407,7.87
				c0,4.299,1.467,8.988,3.768,12.862L383.751,385.878z"/>
			<polygon id="XMLID_2849_" style="fill:#37474F;" points="383.751,385.878 401.18,375.815 402.993,396.988 			"/>
			<path id="XMLID_2848_" style="fill:#37474F;" d="M393.371,333.78c3.761,2.172,7.047,6.737,8.876,11.779l-15.515,8.958
				l0.001-0.005c-2.302-3.874-3.768-8.563-3.768-12.862C382.964,333.985,387.624,330.462,393.371,333.78z"/>
		</g>
		<path style="fill:#455A64;" d="M368.154,280.153c0-0.004-0.002-0.009-0.002-0.014h0.002v-42.563
			c0-13.183,4.982-23.62,13.669-28.635c8.291-4.787,18.544-4.138,28.875,1.825c18.973,10.954,33.836,37.684,33.836,60.851v42.797
			h0.002c0,1.286-0.858,2.571-2.557,3.552c-3.398,1.962-8.909,1.962-12.307,0c-1.699-0.981-2.557-2.267-2.557-3.552h0.001v-42.797
			c0-16.944-11.507-37.902-25.126-45.766c-4.644-2.681-8.818-3.347-11.456-1.826c-3.106,1.793-4.96,6.859-4.96,13.551v42.563h0.001
			c0,0.002-0.001,0.004-0.001,0.006v0.024h-0.004c-0.014,1.276-0.866,2.549-2.552,3.522c-3.398,1.962-8.909,1.963-12.307,0
			c-1.686-0.973-2.539-2.247-2.552-3.522h-0.003V280.153z"/>
	</g>
</g>
<g id="Keys">
	<g id="Key_3_">
		<path id="XMLID_2821_" style="fill:#E0E0E0;" d="M333.136,423.998l0,2.695c-0.011,3.167,2.076,6.336,6.261,8.753
			c6.303,3.639,15.56,4.527,23.312,2.671l7.2,4.156l5.532-1.25l3.775,2.18l0.206,4.563l2.034,1.174l5.108,0.449l3.671,2.048v2.572
			l4.607,2.66h11.715l4.199-2.423v-2.72l-37.469-18.913c1.726-1.831,2.591-3.861,2.595-5.89l0-2.724
			c-0.563-2.63-2.755-3.987-6.253-6.007c-8.348-4.82-21.884-4.82-30.232,0C335.644,420.159,333.515,421.165,333.136,423.998z
			 M344.612,420.85c2.365-1.366,6.199-1.366,8.564,0c2.365,1.365,2.365,3.579,0,4.944c-2.365,1.366-6.199,1.366-8.564,0
			C342.247,424.429,342.247,422.215,344.612,420.85z"/>
		<path id="XMLID_2562_" style="fill:#F0F0F0;" d="M339.398,432.726c6.303,3.639,15.56,4.526,23.312,2.671l7.2,4.157l5.532-1.25
			l3.775,2.18l0.206,4.563l2.034,1.174l5.108,0.449l3.983,2.222l-0.312,2.398l4.607,2.66h11.715l4.199-2.423l-37.469-21.633
			c4.413-4.682,3.202-10.661-3.658-14.621c-8.348-4.82-21.884-4.82-30.232,0C331.049,420.091,331.049,427.906,339.398,432.726z
			 M344.612,418.129c2.365-1.365,6.199-1.365,8.564,0c2.365,1.365,2.365,3.579,0,4.945c-2.365,1.365-6.199,1.365-8.564,0
			C342.247,421.709,342.247,419.495,344.612,418.129z"/>
		<g id="XMLID_2460_" style="opacity:0.1;">
			<path d="M340.627,430.598c-3.199-1.848-5.033-4.252-5.033-6.599c0-2.348,1.834-4.752,5.033-6.599
				c3.67-2.118,8.602-3.284,13.887-3.284c5.285,0,10.217,1.166,13.887,3.284c3.199,1.847,5.032,4.253,5.032,6.599
				c0,2.346-1.834,4.752-5.032,6.599c-3.671,2.118-8.603,3.284-13.887,3.284C349.23,433.883,344.299,432.716,340.627,430.598z
				 M341.011,418.065c-2.954,1.705-4.648,3.868-4.648,5.933c0,2.066,1.694,4.228,4.648,5.933c3.557,2.052,8.351,3.182,13.502,3.182
				c5.151,0,9.946-1.13,13.503-3.182c2.954-1.707,4.648-3.869,4.648-5.933c0-2.064-1.694-4.227-4.648-5.933
				c-3.554-2.052-8.35-3.182-13.503-3.182C349.361,414.883,344.565,416.014,341.011,418.065z"/>
		</g>
		<path id="XMLID_2459_" style="opacity:0.1;" d="M346.82,435.51v2.719c5.107,1.137,10.82,1.099,15.89-0.114v-2.719
			C357.641,436.609,351.927,436.647,346.82,435.51z"/>
		<polygon id="XMLID_2457_" style="opacity:0.1;" points="369.909,439.553 369.909,442.273 375.441,441.023 375.441,438.303 		"/>
		<polygon id="XMLID_2438_" style="opacity:0.1;" points="379.216,440.482 379.216,443.203 379.422,447.766 379.422,445.045 		"/>
		<polygon id="XMLID_2437_" style="opacity:0.1;" points="381.456,446.219 381.456,448.94 386.564,449.389 386.564,446.668 		"/>
		<rect id="XMLID_2436_" x="394.842" y="453.948" style="opacity:0.1;" width="11.715" height="2.721"/>
		<polygon id="XMLID_2435_" style="opacity:0.15;" points="410.757,451.525 410.757,454.246 406.557,456.669 406.557,453.948 
			408.398,452.886 408.398,454.06 409.413,453.474 409.413,452.287 		"/>
		<polygon id="XMLID_2434_" style="fill:#BA68C8;" points="409.413,452.287 408.398,452.886 408.398,454.06 409.413,453.474 		"/>
		<polygon id="XMLID_2433_" style="opacity:0.15;" points="409.413,452.287 409.413,453.474 370.988,431.286 372.004,430.688 		"/>
		<polygon id="XMLID_2431_" style="opacity:0.15;" points="372.004,430.688 372.004,431.874 370.988,431.286 		"/>
	</g>
	<g id="Key_5_">
		<path style="fill:#E0E0E0;" d="M158.902,411.788l-0.537,0.31l-0.505-0.31l0.003-0.587l-1.32-0.776l-37.469,21.633
			c-8.109-2.548-18.465-1.848-25.324,2.112c-4.208,2.429-6.286,5.618-6.251,8.802c0.005,0.419-0.001,2.154,0,2.604
			c0.006,3.152,2.085,6.303,6.251,8.708c8.349,4.82,21.884,4.82,30.232,0c4.184-2.416,6.265-5.583,6.252-8.749
			c-0.002-0.436-0.001-2.193-0.003-2.638c-0.003-0.908-0.18-1.815-0.525-2.706l6.102-3.523v-2.66l-0.87-1.282l2.479-1.431
			l7.903-0.119l2.034-1.174l0.777-2.949l3.849-2.299l4.153,0.18l4.607-2.66v-2.66v-4.104v-2.66L158.902,411.788z M98.701,448.614
			c-0.584-0.337-1.022-0.727-1.318-1.143c0.296-0.415,0.733-0.805,1.318-1.142c2.365-1.366,6.199-1.366,8.564,0
			c0.585,0.337,1.022,0.727,1.318,1.142c-0.296,0.415-0.733,0.805-1.318,1.143C104.9,449.98,101.065,449.98,98.701,448.614z"/>
		<g>
			<path style="opacity:0.1;" d="M130.199,443.616v2.34c-0.162,3.017-2.218,6.02-6.222,8.333c-2.611,1.515-5.749,2.543-9.063,3.111
				v-2.678c3.314-0.555,6.439-1.583,9.063-3.098C127.832,449.392,129.915,446.538,130.199,443.616z"/>
			<polyline style="opacity:0.15;" points="120.861,433.03 120.452,432.799 157.864,411.201 			"/>
			<polygon style="opacity:0.15;" points="137.417,431.295 137.417,428.636 133.642,430.815 134.938,432.727 			"/>
			<polygon style="opacity:0.1;" points="145.32,428.517 145.32,431.176 137.417,431.295 137.417,428.636 			"/>
			<polygon style="opacity:0.1;" points="148.132,424.393 148.132,427.053 147.354,430.002 147.354,427.342 			"/>
			<polygon style="opacity:0.15;" points="151.981,424.754 151.981,422.094 148.132,424.393 148.132,427.053 			"/>
			<polygon style="opacity:0.1;" points="151.981,422.094 156.134,422.274 156.134,424.933 151.981,424.754 			"/>
		</g>
		<path id="XMLID_2401_" style="fill:#F0F0F0;" d="M123.982,451.625c6.303-3.639,7.84-8.984,4.626-13.459l7.199-4.157l-2.166-3.194
			l3.775-2.18l7.903-0.119l2.034-1.174l0.777-2.949l3.849-2.299l4.153,0.18l4.607-2.66v-6.764l-1.839-1.062l-0.537,0.31l-0.505-0.31
			l0.003-0.587l-1.32-0.776l-37.469,21.633c-8.108-2.548-18.465-1.848-25.324,2.112c-8.348,4.82-8.348,12.635,0,17.455
			C102.098,456.445,115.634,456.445,123.982,451.625z M98.701,448.614c-2.365-1.365-2.365-3.579,0-4.945
			c2.365-1.366,6.199-1.366,8.564,0c2.365,1.366,2.365,3.579,0,4.945C104.9,449.98,101.066,449.98,98.701,448.614z"/>
		<g id="XMLID_1232_" style="opacity:0.1;">
			<path d="M108.866,452.782c-5.284,0-10.215-1.168-13.887-3.286c-3.199-1.846-5.032-4.252-5.032-6.599
				c0-2.346,1.834-4.752,5.032-6.598c3.671-2.118,8.603-3.286,13.887-3.286c5.284,0,10.215,1.168,13.887,3.286
				c3.199,1.846,5.032,4.25,5.032,6.598c0,2.349-1.834,4.753-5.032,6.599C119.082,451.614,114.15,452.782,108.866,452.782z
				 M108.866,433.781c-5.151,0-9.947,1.13-13.503,3.184c-2.954,1.705-4.648,3.868-4.648,5.932c0,2.066,1.694,4.228,4.648,5.933
				c3.555,2.053,8.351,3.184,13.503,3.184c5.151,0,9.947-1.13,13.503-3.184c2.954-1.704,4.648-3.868,4.648-5.933
				c0-2.066-1.694-4.228-4.648-5.932C118.814,434.911,114.018,433.781,108.866,433.781z"/>
		</g>
		<polygon id="XMLID_1201_" style="opacity:0.15;" points="157.864,411.201 157.86,411.788 158.365,412.098 121.489,433.386 
			120.452,432.799 		"/>
		<polyline style="opacity:0.15;" points="157.864,411.201 157.86,411.788 120.861,433.03 		"/>
	</g>
</g>
<g id="Plants">
	<g id="Plants_1_">
		<g id="XMLID_2867_">
			<g id="XMLID_2869_">
				<path style="fill:#BA68C8;" d="M297.88,334.239c-9.251,1.578-17.997,17.342-19.686,33.303
					c-0.997,9.458-0.025,19.647,1.188,26.481l2.045,1.489l1.151,0.833l4.013,2.898l2.469,1.793
					c-0.181-7.88,0.582-14.296,1.994-19.689l0.001-0.01c1.019-3.926,2.373-7.305,3.951-10.319
					c3.36-6.449,8.353-12.739,10.502-17.192C310.886,342.73,306.497,332.767,297.88,334.239z"/>
				<path style="opacity:0.65;fill:#FFFFFF;" d="M297.88,334.239c-9.251,1.578-17.997,17.342-19.686,33.303
					c-0.997,9.458-0.025,19.647,1.188,26.481l2.045,1.489l1.151,0.833l4.013,2.898l2.469,1.793
					c-0.181-7.88,0.582-14.296,1.994-19.689l0.001-0.01c1.019-3.926,2.373-7.305,3.951-10.319
					c3.36-6.449,8.353-12.739,10.502-17.192C310.886,342.73,306.497,332.767,297.88,334.239z"/>
			</g>
			<g id="XMLID_2868_">
				<path style="fill:#FFFFFF;" d="M300.194,340.641c-10.013,9.15-19.013,31.161-17.617,55.704l-1.151-0.833
					c-1.144-24.548,7.952-46.519,18.02-55.703c0.232-0.207,0.583-0.191,0.79,0.041C300.444,340.073,300.427,340.433,300.194,340.641
					z"/>
			</g>
		</g>
		<g id="XMLID_2864_">
			<g id="XMLID_2866_">
				<path style="fill:#BA68C8;" d="M306.104,364.012c-5.838,2.214-10.028,6.579-15.05,17.325l-0.001,0.01
					c-2.248,4.925-3.99,10.787-4.463,17.896l2.469,1.793l1.151,0.833l1.048,0.752l1.458,1.083c1.176-3.498,3.112-6.494,6.166-9.996
					c8.096-9.283,18.386-15.534,19.689-21.139C320.132,365.823,315.522,360.44,306.104,364.012z"/>
				<path style="opacity:0.3;fill:#FFFFFF;" d="M306.104,364.012c-5.838,2.214-10.028,6.579-15.05,17.325l-0.001,0.01
					c-2.248,4.925-3.99,10.787-4.463,17.896l2.469,1.793l1.151,0.833l1.048,0.752l1.458,1.083c1.176-3.498,3.112-6.494,6.166-9.996
					c8.096-9.283,18.386-15.534,19.689-21.139C320.132,365.823,315.522,360.44,306.104,364.012z"/>
			</g>
			<path style="fill:#FFFFFF;" d="M308.469,372.157c0.276-0.142,0.382-0.483,0.24-0.759c-0.154-0.267-0.474-0.381-0.76-0.229
				c-6.35,3.344-16.226,12.882-19.522,29.408l0.633,0.46l0.4,0.289C292.666,384.793,302.664,375.214,308.469,372.157z"/>
		</g>
	</g>
</g>
<g id="Shadow">
	<ellipse id="Shadow_4_" style="fill:#E0E0E0;" cx="248.405" cy="429.59" rx="69.592" ry="40.179"/>
</g>
<g id="Character">
	<g id="Character_2_">
		<g id="Bottom_3_">
			<g>
				<path style="fill:#FFBDA7;" d="M205.206,404.887c1.078-14.835-0.588-26.206,0.647-49.37v0c0.11-5.937,0.325-12.298,0.723-17.949
					c1.339-19.012,4.271-25.512,4.542-29.181c0,0,0.502-29.581,1.745-71.181c0.584-19.57,6.255-25.496,10.786-35.884h53.859
					c6.017,25.632,7.731,81.528,7.551,107.944c-0.091,13.468-5.528,85.513-5.637,87.171c-0.385,5.879,0.128,8.2,2.432,10.672
					c4.826,5.178,11.821,10.107,17.868,14.621c-0.876,2.313-8.148,2.228-11.748,0.467c-5.751-2.813-11.46-7.104-13.423-8.557
					c-4.969-3.678-11.318-6.629-11.4-12.226c-0.014-0.697-0.203-0.889-0.167-0.999c-0.095-3.268-7.712-51.462-8.347-62.646
					c-0.545-9.615,0.626-25.934,0.626-25.934l-6.204-40.732c0,0-3.824,24.074-7.694,40.513
					c-3.149,13.381-8.344,36.214-11.889,52.682l0,0c-3.404,18.971-8.406,32.474-9.27,41.971c-0.261,2.267-2.829,24.522-3.889,29.62
					c-1.06,5.097-12.171,5.232-12.883-3.535C202.96,426.519,205.003,407.679,205.206,404.887z"/>
				<path id="XMLID_547_" style="fill:#F28F8F;" d="M249.059,271.104l4.536-29.383c0,0,17.535-2.082,23.912-8.208
					c0,0-8.041,11.346-19.939,13.196l-5,24.357l2.643,40.422L249.059,271.104z"/>
			</g>
			<g>
				<path style="fill:#263238;" d="M310.011,427.644c0.307-0.003,0.808,3.381-0.847,4.839c-1.91,1.683-7.54,4.474-15.027,3.587
					c-7.488-0.887-11.562-3.157-14.581-5.629c-3.019-2.472-7.25-5.959-10.641-6.669c-3.149-0.659-6.577-2.046-7.593-3.007
					c-1.016-0.96-0.922-5.28-0.922-5.28L310.011,427.644z"/>
				<path id="XMLID_543_" style="fill:#37474F;" d="M262.828,398.834c0,0-0.564,0.024-0.747,1.026
					c-0.217,1.192-0.429,4.655-0.903,6.614c-0.657,2.722-1.057,8.29-0.622,10.498c0.436,2.208,5.574,3.69,8.861,4.902
					c3.357,1.238,7.252,3.82,10.676,6.583c3.544,2.859,10.967,5.687,15.842,5.706c7.441,0.029,12.238-2.041,13.697-4.73
					c1.805-3.328,0.342-5.229-8.25-9.099c-1.626-0.732-7.348-4.036-9.298-5.235c-2.061-1.267-4.039-2.679-5.864-4.268
					c-0.923-0.804-1.808-1.654-2.638-2.555c-0.731-0.793-1.757-1.75-2.195-2.742c-0.099-0.225-0.169-0.488-0.258-0.721
					c-0.257-0.674-0.435-1.295-0.579-1.998c-0.145-0.709-0.243-1.745-0.924-2.163c-0.781-0.481-2.182-0.405-3.06-0.329
					c-1.105,0.096-2.214,0.248-3.292,0.502c-1.255,0.296-2.71,0.423-3.443,1.613c-0.562,0.912-0.637,2.057-0.671,3.105
					c-0.016,0.499,0,1.002,0.001,1.501c0,0.213,0.096,0.596-0.204,0.51c-0.285-0.081-0.611-0.824-0.721-1.077
					c-0.243-0.556-0.401-1.153-0.667-1.699c-0.303-0.625-0.645-1.266-1.083-1.799c-0.409-0.497-0.855-0.973-1.368-1.364
					c-0.467-0.355-1.06-0.529-1.475-0.933C263.116,400.169,262.878,399.257,262.828,398.834z"/>
				<path style="fill:#FAFAFA;" d="M302.767,420.97c-10.764,0.858-14.084,7.546-14.498,11.667c2.679,0.917,5.438,1.516,7.666,1.525
					c7.441,0.029,12.544-2.041,14.003-4.731C311.641,426.292,310.434,423.787,302.767,420.97z"/>
				<g>
					<g>
						<path style="fill:#F0F0F0;" d="M286.621,421.253c-0.117,0.002-0.235-0.036-0.334-0.115c-0.227-0.181-0.263-0.512-0.082-0.739
							c1.48-1.852,5.778-4.329,9.698-3.945c0.29,0.028,0.502,0.286,0.473,0.574c-0.028,0.288-0.278,0.5-0.574,0.473
							c-3.659-0.348-7.602,2.086-8.776,3.555C286.924,421.184,286.774,421.252,286.621,421.253z"/>
					</g>
					<g>
						<path style="fill:#F0F0F0;" d="M281.953,418.6c-0.117,0.001-0.235-0.036-0.334-0.115c-0.227-0.181-0.263-0.512-0.082-0.74
							c1.481-1.854,5.782-4.337,9.698-3.945c0.29,0.027,0.502,0.286,0.473,0.575c-0.027,0.288-0.273,0.5-0.574,0.473
							c-3.658-0.353-7.602,2.086-8.775,3.555C282.257,418.531,282.106,418.599,281.953,418.6z"/>
					</g>
					<g>
						<path style="fill:#F0F0F0;" d="M277.622,415.559c-0.117,0.001-0.235-0.036-0.335-0.116c-0.227-0.181-0.263-0.512-0.082-0.74
							c1.48-1.854,5.796-4.332,9.698-3.944c0.29,0.027,0.502,0.286,0.473,0.574c-0.028,0.289-0.275,0.499-0.574,0.473
							c-3.653-0.35-7.602,2.086-8.775,3.555C277.925,415.49,277.775,415.557,277.622,415.559z"/>
					</g>
					<g>
						<path style="fill:#F0F0F0;" d="M273.378,412.517c-0.114,0.001-0.231-0.035-0.328-0.111c-0.23-0.178-0.271-0.509-0.093-0.738
							c2.035-2.627,6.679-4.393,10.593-4.007c0.29,0.028,0.502,0.286,0.473,0.574c-0.027,0.289-0.276,0.492-0.574,0.473
							c-3.525-0.345-7.855,1.276-9.661,3.604C273.686,412.446,273.532,412.515,273.378,412.517z"/>
					</g>
				</g>
			</g>
			<g>
				<path style="fill:#263238;" d="M219.807,439.862c-0.296,5.081-1.085,8.449-2.888,11.428c-1.802,2.979-5.203,3.915-8.647,3.043
					c-3.444-0.873-7.855-3.205-8.843-7.587c-0.987-4.383-1.563-7.386-0.78-12.098L219.807,439.862z"/>
				<path id="XMLID_537_" style="fill:#37474F;" d="M205.327,403.072c-1.419,0.111-1.838,6.933-2.656,13.763
					c-0.877,7.321-3.063,10.349-3.846,16.352c-0.895,6.858,0.24,9.922,2.643,14.069c2.402,4.147,10.909,8.214,15.102,2.276
					c3.417-4.842,3.559-10.211,3.247-17.059c-0.322-7.079,0.168-11.981,0.457-17.353c0.276-5.135,1.413-10.313,0.18-10.884
					c-0.095,0.754-0.187,1.711-0.288,2.452c-0.124,0.911-0.127,1.868-0.458,2.738c-0.145,0.382-0.461,0.782-0.59,0.161
					c-0.087-0.421-0.046-0.856,0.001-1.277c0.208-1.891-0.745-2.045-1.259-2.192c-1.115-0.319-5.52-0.86-6.583-0.933
					c-1.084-0.074-4.827-0.237-5.313,0.38c-0.329,0.418-0.376,1.118-0.477,1.983c-0.121,1.032-0.36,1.788-0.39,1.464
					c-0.068-0.739,0.076-2.66,0.094-3.124c0.018-0.445,0.09-1.051,0.096-1.498C205.294,403.95,205.298,403.511,205.327,403.072z"/>
				<path style="fill:#FAFAFA;" d="M198.432,437.161c-0.245,4.258,0.773,7.175,2.654,10.421c2.403,4.147,11.595,8.228,15.787,2.289
					c2.086-2.955,2.645-6.448,2.932-10.013C217.292,435.281,202.395,433.265,198.432,437.161z"/>
				<g>
					<g>
						<path style="fill:#F0F0F0;" d="M216.708,432.402c-0.059-0.006-0.118-0.022-0.175-0.048c-0.057-0.027-6.623-2.742-13.015-1.263
							c-0.283,0.06-0.565-0.112-0.632-0.395c-0.065-0.283,0.112-0.566,0.395-0.631c6.76-1.56,13.455,1.222,13.706,1.339
							c0.262,0.127,0.373,0.44,0.248,0.703C217.138,432.311,216.923,432.423,216.708,432.402z"/>
					</g>
					<g>
						<path style="fill:#F0F0F0;" d="M203.836,425.979c-0.199-0.02-0.378-0.153-0.447-0.354c-0.092-0.276,0.055-0.575,0.329-0.669
							c6.362-2.155,13.423,1.079,13.689,1.219c0.258,0.134,0.357,0.452,0.221,0.71c-0.136,0.256-0.457,0.35-0.71,0.221
							c-0.06-0.03-6.941-3.166-12.861-1.153C203.985,425.979,203.91,425.986,203.836,425.979z"/>
					</g>
					<g>
						<path style="fill:#F0F0F0;" d="M204.061,421.159c-0.195-0.02-0.371-0.149-0.442-0.345c-0.098-0.275,0.043-0.576,0.317-0.673
							c6.997-2.507,13.699,1.028,13.948,1.179c0.249,0.151,0.328,0.475,0.176,0.723c-0.151,0.249-0.481,0.328-0.723,0.177
							c-0.055-0.035-6.533-3.419-13.045-1.088C204.214,421.159,204.136,421.167,204.061,421.159z"/>
					</g>
					<g>
						<path style="fill:#EBEBEB;" d="M204.408,416.414c-0.192-0.019-0.367-0.145-0.44-0.338c-0.102-0.272,0.035-0.576,0.307-0.677
							c6.557-2.455,13.771,1.168,14.042,1.326c0.252,0.143,0.338,0.466,0.193,0.718c-0.143,0.253-0.465,0.343-0.718,0.193
							c-0.063-0.035-7.059-3.533-13.147-1.252C204.567,416.413,204.487,416.422,204.408,416.414z"/>
					</g>
				</g>
			</g>
			<path style="fill:#37474F;" d="M216.686,201.495c-4.459,12.745-7.992,20.807-7.73,55.41c0.282,37.356,0.949,44.623,0.813,48.795
				c-0.135,4.172-2.563,11.628-4.695,32.179c-2.132,20.55,0.39,45.037,0.39,45.037s1.47,3.307,9.328,4.011
				c7.249,0.65,10.839-2.071,10.839-2.071s9.94-40.018,12.689-52.396c2.749-12.378,10.738-53.077,10.738-53.077l4.74,33.009
				c0,0-2.211,11.341,0,29.362c2.211,18.021,6.107,36.481,6.107,36.481s4.93,1.912,11.132,1.819
				c6.202-0.093,9.771-2.553,9.771-2.553s6.158-53.619,6.158-74.046c0-20.426-1.726-71.492-8.155-101.734L216.686,201.495z"/>
			<path style="fill:#263238;" d="M255.53,240.102l-6.472,39.279l4.741,33.009l-2.014-33.451l5.783-32.23
				c4.925-1.181,16.133-7.088,19.212-15.523C269.189,239.126,255.53,240.102,255.53,240.102z M223.463,345.822
				c-1.914,10.638-3.689,21.301-5.326,31.985c2.469-10.53,4.801-21.081,6.994-31.658c2.224-10.581,4.318-21.142,6.395-31.788
				c1.942-10.673,3.257-21.428,4.299-32.19c1.066-10.762,1.843-21.543,2.495-32.335c-1.489,10.709-2.829,21.434-4.177,32.145
				c-1.386,10.706-2.788,21.404-4.758,31.986C227.361,324.535,225.344,335.189,223.463,345.822z M279.319,292.089
				c0.214,4.685,0.493,9.396,0.415,14.029c-0.096,4.653-0.381,9.367-0.618,14.056l-0.71,14.093
				c-0.481,9.397-0.858,18.804-1.12,28.221c1.106-9.355,2.05-18.725,2.815-28.108c0.77-9.393,1.49-18.75,1.809-28.227
				c-0.03-9.523-0.836-18.878-1.678-28.272c-0.87-9.38-2-18.738-3.451-28.047l1.763,28.176
				C278.803,282.706,279.106,287.397,279.319,292.089z"/>
		</g>
		<g id="Top_2_">
			<g id="Arm_9_">
				<path style="fill:#FFBDA7;" d="M264.835,139.376c12.613,0.732,16.443,8.55,22.435,16.314c4.767,6.177,14.525,20.34,14.525,20.34
					s19.598-9.391,22.807-12.465c2.2-2.107,1.525-3.031,5.145-6.576c2.549-2.496,5.485-4.02,6.94-6.27
					c1.153-1.783,3.935,0.122,2.263,3.768c-0.577,1.258-1.954,2.961-1.954,2.961s2.665-1.12,3.99-2.542
					c2.83-3.04,3.682-6.348,7.664-7.66c1.684-0.555,2.265,0.57,1.892,2.027c0.601,0.079,2.014,0.881,1.581,2.729
					c1.056,0.08,1.536,2.05,1.275,2.699c0.655,0.631,1.944,2.609-0.974,7.537c-1.292,2.182-4.406,5.942-5.335,6.657
					c-0.265,0.204-3.996,2.163-8.688,4.084c-4.431,1.814-5.698,2.637-9.311,5.091c-4.173,2.835-14.491,11.118-23.936,16.987
					c-7.86,4.884-11.24,0.519-16.801-6.219c-3.674-4.451-15.623-19.114-15.623-19.114
					C267.489,160.448,263.119,146.081,264.835,139.376z"/>
				<path style="fill:#F0997A;" d="M341.078,163.306c-5.419-0.846-10.51,2.49-11.346,6.909c-0.48-2.363,0.419-4.662,2.569-6.309
					C334.157,162.484,338.062,161.972,341.078,163.306z"/>
			</g>
			<g>
				<path style="fill:#263238;" d="M234.229,83.8c-4.87-2.454-10.902-2.342-15.012-0.225c-6.449,3.322-7.675,6.929-8.309,14.517
					c-0.952,11.393-1.762,14.832-3.134,17.413c-1.49,2.804-3.721,4.098-5.68,4.741c1.244,0.807,3.741,1.634,6.457,0.327
					c-1.198,5.47-2.838,10.064-1.471,15.871c0.921,3.913,2.92,8.353,5.899,11.179c2.537,2.407,6.195,3.169,9.262,4.544
					c-2.036-4.479-3.114-8.697-1.632-13.696c1.635-5.514,5.385-10.187,7.081-15.744c2.347-7.687,5.03-15.646,5.747-23.682
					C234.045,92.249,234.238,88.454,234.229,83.8z"/>
				<path style="fill:#BA68C8;" d="M235.288,83.306c-0.715-1.174-5.163-1.772-8.6,0.599c-3.437,2.372-6.222,6.434-3.743,9.705
					C225.271,96.679,240.031,87.834,235.288,83.306z"/>
			</g>
			<g>
				<path style="fill:#455A64;" d="M209.99,225.017c2.692-19.597,6.217-26.768,6.837-29.127c1.565-5.95-2.212-16.539-3.272-22.662
					c-2.308-13.333,2.386-29.25,5.441-31.956c0,0,3.515-0.958,6.474-1.56c2.345-0.477,4.081-1.127,7.238-1.62
					c8.418-1.316,15.734-1.228,18.373-0.676c2.092,0.437,13.748,1.957,13.755,1.962c0,0,4.84,3.772,9.47,11.616
					c3.533,5.987,6.507,9.913,6.744,23.985c0.28,16.555,0.861,32.578,1.424,49.756C268.969,233.47,227.911,234.917,209.99,225.017z"
					/>
			</g>
			<g id="Head_10_">
				<g id="Head_2_">
					<path style="fill:#37474F;" d="M268.267,82.911c-1.832-0.973-5.336-1.506-8.764-0.843c-5.654-3.076-13.123-4-20.523-2.521
						c-5.532,1.106-12.628,4.449-13.212,12.383c-7.284,2.471-10.585,12.376-5.81,22.755c3.465,7.531,10.12,11.169,13.207,15.77
						l23.455-17.818c2.707,3.102,6.352,2.866,11.201-4.417C276.78,94.764,272.495,85.157,268.267,82.911z"/>
					<path style="fill:#FFBDA7;" d="M225.79,105.24c4.666-2.168,6.538,2.712,6.538,2.712c3.11,1.841,5.273-1.617,5.154-5.74
						c-0.099-3.442,0.845-9.006,4.398-10.431c2.64-1.059,3.776-0.438,9.754,0.736c2.878,0.565,3.749,0.037,7.654-1.715
						c3.412-1.531,7.35,1.905,7.801,6.456c0.313,3.169-0.023,5.864,0.219,7.862c0.243,1.998,0.708,4.784,0.714,6.677
						c0.039,13.706-2.74,16.248-5.322,18.362c-2.044,1.673-5.253,2.782-9.844,2.51l0.045,5.721c0,0,5.089,9.66,5.787,18.341
						c-10.167-3.09-19.892-11.867-26.344-17.741l-0.322-19.24c-1.147,1.489-4.767,2.126-7.356-1.035
						C221.31,114.62,221.316,107.318,225.79,105.24z"/>
					<g id="XMLID_560_">
						<path id="XMLID_1016_" style="fill:#F0997A;" d="M252.856,132.67c-4.47-0.355-8.711-1.244-11.856-3.13
							c-2.258-1.355-4.225-3.591-4.779-4.991c0,0,0.163,3.453,4.434,6.537c3.911,2.825,12.201,3.445,12.201,3.445V132.67z"/>
					</g>
				</g>
				<g id="XMLID_558_">
					<polygon id="XMLID_559_" style="fill:#F0997A;" points="252.915,103.461 254.21,116.131 260.945,112.86 					"/>
				</g>
				<g>
					<path id="XMLID_552_" style="fill:#B16668;" d="M248.435,118.4l6.484,1.624c-0.416,1.843-2.204,2.973-3.995,2.525
						C249.133,122.101,248.019,120.243,248.435,118.4z"/>
					<path style="fill:#F28F8F;" d="M250.558,120.096c-0.689-0.326-1.436-0.361-2.12-0.176c0.27,1.251,1.197,2.307,2.486,2.63
						c0.462,0.116,0.923,0.122,1.362,0.042C252.194,121.548,251.578,120.578,250.558,120.096z"/>
				</g>
				<g>
					<g>
						<g>
							<path id="XMLID_380_" style="fill:#263238;" d="M264.551,105.986c0.429,1.069-0.313,1.462-1.342,1.872
								c-1.03,0.411-1.957,0.682-2.387-0.387c-0.429-1.069,0.058-2.267,1.088-2.677C262.94,104.384,264.122,104.918,264.551,105.986
								z"/>
							<path style="fill:#263238;" d="M260.938,105.238c0.443-0.293,0.971-0.474,1.481-0.615c0.5-0.138,1.033-0.207,1.548-0.156
								c0.866,0.086,1.335,0.27,1.606,0.389c0.035,0.016,0.077,0.131,0.013,0.127c-0.428-0.028-0.806-0.081-1.422-0.072
								c-0.52,0.007-1.234,0.146-1.731,0.292c-0.782,0.231-1.083,0.348-1.938,0.829c-0.2,0.112-0.586,0.349-0.623,0.381
								c-0.055,0.048-0.113-0.107-0.085-0.157C260.02,105.831,260.543,105.499,260.938,105.238z"/>
						</g>
						<path id="XMLID_379_" style="fill:#263238;" d="M260.945,99.72l4.723,1.316c0.332-1.346-0.457-2.732-1.761-3.095
							C262.603,97.578,261.277,98.374,260.945,99.72z"/>
					</g>
					<g>
						<g>
							<path id="XMLID_376_" style="fill:#263238;" d="M244.62,106.994c-0.286,1.115,0.5,1.41,1.574,1.682
								c1.074,0.273,2.029,0.421,2.316-0.695c0.286-1.115-0.352-2.241-1.426-2.513C246.009,105.196,244.906,105.879,244.62,106.994z
								"/>
							<path style="fill:#263238;" d="M248.105,105.783c-0.478-0.233-1.025-0.344-1.549-0.417c-0.514-0.072-1.051-0.071-1.556,0.047
								c-0.848,0.198-1.289,0.441-1.541,0.594c-0.033,0.02-0.06,0.14,0.003,0.128c0.421-0.084,0.789-0.185,1.4-0.256
								c0.516-0.06,1.242-0.016,1.754,0.065c0.806,0.127,1.12,0.204,2.03,0.57c0.212,0.086,0.626,0.27,0.667,0.296
								c0.061,0.04,0.098-0.121,0.064-0.167C249.092,106.252,248.531,105.991,248.105,105.783z"/>
						</g>
						<path id="XMLID_285_" style="fill:#263238;" d="M246.257,100.541l-4.307,2.341c-0.625-1.237-0.168-2.765,1.022-3.411
							C244.162,98.825,245.633,99.303,246.257,100.541z"/>
					</g>
				</g>
			</g>
			<g id="Key_1_">
				<path id="XMLID_1023_" style="fill:#BA68C8;" d="M336.667,145.611c-17.634-7.722-44.497-4.731-60.001,6.679
					c-6.497,4.781-10.546,7.959-11.083,13.303l0.602,5.406c0.456,4.027,2.622,7.864,6.452,11.116l-70.185,45.812l0.601,5.399
					l8.87,3.881l23.251-2.588l8.556-6.297l-0.568-5.104l6.833-4.876l10.039-2.019l3.777-2.78l-0.599-9.102l7.011-5.16l11.255,1.26
					l13.37-9.84c15.795,1.971,33.971-1.836,45.676-10.451c7.773-5.721,11.215-12.471,10.493-18.755l-0.595-5.349
					C349.043,150.61,344.595,149.083,336.667,145.611z M328.041,162.249c-4.392,3.232-12.002,4.08-16.997,1.892
					c-4.995-2.187-5.484-6.581-1.092-9.813c4.392-3.232,12.002-4.08,16.997-1.892C331.944,154.624,332.434,159.017,328.041,162.249z
					"/>
				<path id="XMLID_1014_" style="opacity:0.2;" d="M336.667,145.611c-17.634-7.722-44.497-4.731-60.001,6.679
					c-6.497,4.781-10.546,7.959-11.083,13.303l0.602,5.406c0.456,4.027,2.622,7.864,6.452,11.116l-70.185,45.812l0.601,5.399
					l8.87,3.881l23.251-2.588l8.556-6.297l-0.568-5.104l6.833-4.876l10.039-2.019l3.777-2.78l-0.599-9.102l7.011-5.16l11.255,1.26
					l13.37-9.84c15.795,1.971,33.971-1.836,45.676-10.451c7.773-5.721,11.215-12.471,10.493-18.755l-0.595-5.349
					C349.043,150.61,344.595,149.083,336.667,145.611z M328.041,162.249c-4.392,3.232-12.002,4.08-16.997,1.892
					c-4.995-2.187-5.484-6.581-1.092-9.813c4.392-3.232,12.002-4.08,16.997-1.892C331.944,154.624,332.434,159.017,328.041,162.249z
					"/>
				<path id="XMLID_1011_" style="fill:#BA68C8;" d="M336.066,140.212c-17.633-7.722-44.497-4.731-60.001,6.679
					c-12.739,9.375-13.822,21.51-4.03,29.826l-69.584,51.212l8.87,3.881l23.251-2.588l8.556-6.297l-1.148-4.69l7.413-5.29
					l10.039-2.019l3.777-2.78l-0.599-9.102l7.011-5.16l11.255,1.26l13.371-9.84c15.795,1.971,33.971-1.836,45.676-10.451
					C355.426,163.443,353.699,147.934,336.066,140.212z M327.44,156.85c-4.392,3.232-12.002,4.079-16.997,1.892
					c-4.995-2.188-5.485-6.581-1.092-9.814c4.392-3.232,12.002-4.08,16.997-1.892C331.343,149.224,331.832,153.618,327.44,156.85z"
					/>
				<path id="XMLID_1003_" style="opacity:0.3;fill:#FFFFFF;" d="M336.066,140.212c-17.633-7.722-44.497-4.731-60.001,6.679
					c-12.739,9.375-13.822,21.51-4.03,29.826l-69.584,51.212l8.87,3.881l23.251-2.588l8.556-6.297l-1.148-4.69l7.413-5.29
					l10.039-2.019l3.777-2.78l-0.599-9.102l7.011-5.16l11.255,1.26l13.371-9.84c15.795,1.971,33.971-1.836,45.676-10.451
					C355.426,163.443,353.699,147.934,336.066,140.212z M327.44,156.85c-4.392,3.232-12.002,4.079-16.997,1.892
					c-4.995-2.188-5.485-6.581-1.092-9.814c4.392-3.232,12.002-4.08,16.997-1.892C331.343,149.224,331.832,153.618,327.44,156.85z"
					/>
				<g style="opacity:0.2;">
					<path style="fill:#FFFFFF;" d="M265.878,167.147l41.151-11.111c-1.378-2.207-0.648-4.922,2.322-7.108
						c4.392-3.232,12.002-4.08,16.997-1.892c1.685,0.738,2.845,1.73,3.49,2.841l15.021-4.056c-2.263-2.126-5.19-4.033-8.793-5.61
						c-0.512-0.224-1.056-0.408-1.583-0.614l-67.699,18.279C265.485,160.993,265.198,164.137,265.878,167.147z"/>
					<path style="fill:#FFFFFF;" d="M348.931,164.543c2.553-5.492,1.982-11.122-1.59-15.951l-17.089,4.614
						c-0.364,1.261-1.287,2.522-2.811,3.644c-4.392,3.232-12.002,4.079-16.997,1.892c-0.087-0.038-0.162-0.082-0.247-0.122
						l-43.233,11.673c1.09,2.294,2.768,4.467,5.072,6.423l-18.431,13.564L348.931,164.543z"/>
				</g>
				<g id="XMLID_1001_">
					<path style="fill:#BA68C8;" d="M310.177,180.49c-10.487,1.167-20.534-0.059-28.287-3.452
						c-6.755-2.959-10.926-7.328-11.445-11.985c-0.518-4.656,2.59-9.835,8.529-14.208c6.818-5.017,16.349-8.422,26.835-9.589
						c10.486-1.167,20.533,0.059,28.287,3.453c6.755,2.959,10.928,7.328,11.446,11.984c0.519,4.657-2.591,9.836-8.53,14.209
						C330.195,175.917,320.664,179.322,310.177,180.49z M305.979,142.781c-10.223,1.138-19.491,4.441-26.095,9.298
						c-5.486,4.039-8.369,8.706-7.913,12.803c0.456,4.098,4.295,8.016,10.535,10.75c7.51,3.287,17.277,4.469,27.501,3.331
						c10.224-1.138,19.492-4.44,26.096-9.298c5.486-4.039,8.37-8.706,7.914-12.804c-0.456-4.097-4.296-8.015-10.536-10.749
						C325.97,142.827,316.202,141.643,305.979,142.781z"/>
				</g>
				<path id="XMLID_999_" style="opacity:0.1;" d="M325.806,182.02l0.601,5.397c-9.885,3.385-21.232,4.572-31.561,3.285
					l-0.601-5.397C304.574,186.592,315.922,185.405,325.806,182.02z"/>
				<polygon id="XMLID_998_" style="opacity:0.1;" points="280.875,195.144 281.476,200.544 270.221,199.284 269.62,193.885 				"/>
				<polygon id="XMLID_997_" style="opacity:0.1;" points="262.609,199.044 263.211,204.444 263.81,213.545 263.209,208.146 				"/>
				<polygon id="XMLID_970_" style="opacity:0.1;" points="259.432,210.926 260.033,216.325 249.994,218.344 249.393,212.945 				
					"/>
				
					<rect id="XMLID_968_" x="211.55" y="230.499" transform="matrix(0.9939 -0.1106 0.1106 0.9939 -24.4327 26.1322)" style="opacity:0.1;" width="23.395" height="5.433"/>
				<polygon id="XMLID_557_" style="opacity:0.15;" points="202.451,227.929 203.052,233.328 211.922,237.209 211.321,231.81 
					207.434,230.108 207.693,232.438 205.548,231.499 205.286,229.145 				"/>
				<polygon id="XMLID_556_" style="fill:#BA68C8;" points="205.286,229.145 207.434,230.108 207.693,232.438 205.548,231.499 				
					"/>
				<polygon id="XMLID_549_" style="opacity:0.3;fill:#FFFFFF;" points="205.286,229.145 207.434,230.108 207.693,232.438 
					205.548,231.499 				"/>
				<polygon id="XMLID_548_" style="fill:#BA68C8;" points="205.286,229.145 205.548,231.499 276.908,178.976 274.759,178.012 				
					"/>
				<polygon id="XMLID_536_" style="opacity:0.15;" points="274.759,178.012 275.021,180.367 276.908,178.976 				"/>
			</g>
			<g id="Arm_7_">
				<path style="fill:#FFBDA7;" d="M201.557,152.606c5.92-9.941,11.5-9.909,17.439-11.334c5.268,7.192,6.286,21.53-4.34,36.926
					l-11.355,18.63c0,0,17.09,7.717,22.895,6.178c2.282-0.367,3.608-1.111,4.926-1.666c3.498-1.473,4.851-1.548,8.169-2.804
					c2.598-0.983,3.689-2.287,4.184-1.81c0.637,0.613,1.344,2.379-0.222,4.256c-0.789,0.944-1.516,1.509-3.376,2.786
					c0,0,4.198-0.079,9.397-1.273c4.191-0.963,6.299-2.199,7.466-0.569c0.739,1.031-0.182,2.199-0.578,3.151
					c-0.463,1.112-0.152,2.516-0.8,3.534c-0.371,0.582-1.063,0.927-1.364,1.548c-0.357,0.736-0.062,1.636-0.309,2.415
					c-0.177,0.558-0.611,0.993-1.035,1.399c-1.337,1.277-2.927,3.13-4.598,3.963c-1.01,0.503-2.468,0.701-3.585,0.914
					c-3.404,0.649-6.919,0.734-10.378,0.734c-6.45-0.001-10.014-1.165-16.248-1.975c-11.661-1.516-25.506-5.174-30.991-7.293
					c-6.163-2.381-6.347-7.007-5.811-12.347C181.978,188.647,196.879,160.462,201.557,152.606z"/>
			</g>
		</g>
	</g>
</g>
<g id="Speech_Bubble">
	<g id="Speech_Bubble_2_">
		<g id="Speech_Bubble_4_">
			<path id="XMLID_2521_" style="fill:#37474F;" d="M322.773,60.669L295.63,76.371c-0.535,0.309-0.969,1.06-0.969,2.512v32.328
				c0,0.646,0.437,1.376,0.975,1.68l3.854,2.191c0.538,0.304,1.408,0.299,1.943-0.009l27.144-15.702
				c0.535-0.309,0.969-1.06,0.969-1.678V64.52c0-0.618-0.436-1.365-0.974-1.669l-3.855-2.192
				C324.178,60.356,323.309,60.36,322.773,60.669z"/>
			<path id="XMLID_2462_" style="fill:#263238;" d="M301.433,115.074c-0.516,0.299-1.458,0.31-1.945,0.011l-3.852-2.195
				c-0.537-0.3-0.975-1.011-0.975-1.678V78.883c0-1.156,0.225-1.534,0.34-1.805l5.75,3.309c-0.112,0.213-0.29,0.484-0.286,0.953
				v33.174C300.464,115.093,300.862,115.405,301.433,115.074z"/>
			<g>
				<path id="XMLID_2461_" style="fill:#37474F;" d="M292.005,102.651c-0.609-0.363-5.249-2.977-5.396-3.062
					c-0.448-0.273-0.609-0.936-0.193-1.383l8.244-9.452l5.803,3.328l-8.622,9.21C291.438,101.722,291.598,102.355,292.005,102.651z"
					/>
				<path style="fill:#455A64;" d="M328.577,63.96l-27.144,15.702c-0.535,0.309-0.969,1.06-0.969,1.678v10.743l-8.625,9.207
					c-0.558,0.599-0.148,1.421,0.554,1.485l8.071-0.59l0,0v12.328c0,0.618,0.434,0.868,0.969,0.559l27.144-15.702
					c0.535-0.309,0.969-1.06,0.969-1.678V64.52C329.545,63.902,329.112,63.651,328.577,63.96z"/>
			</g>
		</g>
		<path id="Check_2_" style="fill:#FAFAFA;" d="M323.541,73.225c-1.228-0.514-2.645,0.063-3.158,1.288l-9.114,21.686l-2.171-2.111
			c-0.949-0.925-2.478-0.904-3.409,0.05c-0.925,0.952-0.903,2.482,0.049,3.409l4.705,4.574c0.452,0.439,1.049,0.681,1.68,0.681
			c0.159,0,0.318-0.015,0.481-0.047c0.783-0.16,1.435-0.695,1.742-1.428l10.483-24.943C325.343,75.156,324.766,73.74,323.541,73.225
			z"/>
	</g>
</g>
</svg>
